# xmcd
# 
# Track frame offsets:
#     150
#     15441
#     31104
#     45964
#     74105
#     84362
#     96855
#     119242
#     134030
#     149687
#     171074
#     185287
#     212652
# 
# Disc length: 2943
# 
# Revision: 0
# Processed by: cddbd v1.5.2PL0 Copyright (c) Steve Scherf et al.
# Submitted via: fre:ac v1.0.31
# 
DISCID=ba0b7d0d
DTITLE=MASTER CD C7 - 25 Aniversario C7
DYEAR=0
DGENRE=Folklore
TTITLE0=Sombras del Nublo
TTITLE1=25 Aniversario C7
TTITLE2=25 Aniversario C7
TTITLE3=25 Aniversario C7
TTITLE4=25 Aniversario C7
TTITLE5=25 Aniversario C7
TTITLE6=25 Aniversario C7
TTITLE7=25 Aniversario C7
TTITLE8=25 Aniversario C7
TTITLE9=25 Aniversario C7
TTITLE10=25 Aniversario C7
TTITLE11=25 Aniversario C7
TTITLE12=25 Aniversario C7
EXTD=
EXTT0=
EXTT1=
EXTT2=
EXTT3=
EXTT4=
EXTT5=
EXTT6=
EXTT7=
EXTT8=
EXTT9=
EXTT10=
EXTT11=
EXTT12=
PLAYORDER=
